<?xml version="1.0" encoding="utf-8"?><!DOCTYPE svg PUBLIC "-//W3C//DTD SVG 1.1//EN" "http://www.w3.org/Graphics/SVG/1.1/DTD/svg11.dtd"><svg viewBox="0 0 50 49.68" xmlns="http://www.w3.org/2000/svg" xmlns:xlink="http://www.w3.org/1999/xlink"><style>:root>svg{display:none}:root>svg:target{display:block}</style><svg viewBox="0 -3.34 50 49.68" id="01" xmlns="http://www.w3.org/2000/svg"><path fill="none" stroke="#000" stroke-linecap="round" stroke-linejoin="round" d="M36.025 19.506L20.202 35.329c-7.823 7.823-18.078-1.494-9.786-9.785L31.132 4.828c10.16-10.16 23.429 3.482 13.456 13.455L23.872 38.998C10.519 52.351-6.795 35.974 7.025 22.154L22.849 6.331"/></svg><svg viewBox="0 4.83 50 49.68" id="02" xmlns="http://www.w3.org/2000/svg"><path fill="none" stroke="#000" stroke-linecap="round" stroke-linejoin="round" d="M1.438 6.232h47.125v46.875H1.438z"/><path fill="none" stroke="#000" stroke-linecap="round" stroke-linejoin="round" d="M1.755 44.13l12.62-12.255 9.125 6.75 13.75-15.5 11 8.5"/><path fill="none" stroke="#F45389" stroke-linecap="round" stroke-linejoin="round" d="M42.169 24.085a6.236 6.236 0 10-10.474 1.377"/></svg><svg viewBox="0 0 50 43" id="03" xmlns="http://www.w3.org/2000/svg"><path fill="none" stroke="#F45389" stroke-linecap="round" stroke-linejoin="round" d="M16.844 35.034c-2.212.75-3.594 1.801-3.594 2.966 0 2.278 5.261 4.125 11.75 4.125S36.75 40.278 36.75 38c0-1.202-1.474-2.28-3.811-3.034"/><g fill="none" stroke-linecap="round" stroke-linejoin="round"><path stroke="#000" d="M39.5 15.5C39.5 7.492 33.008 1 25 1S10.5 7.492 10.5 15.5c0 8.009 10.106 22.408 14.5 22.408 4.063 0 14.5-14.399 14.5-22.408z"/><circle stroke="#F45389" cx="25" cy="17.901" r="5.932"/></g></svg></svg>